<?xml version="1.0" encoding="UTF-8"?>
<svg id="Calque_1" xmlns="http://www.w3.org/2000/svg" version="1.1" viewBox="253.26 9.73 1269.57 437.49">
  <!-- Generator: Adobe Illustrator 30.6.0, SVG Export Plug-In . SVG Version: 2.1.4 Build 109)  -->
  <defs>
    <style>
      .st0 {
        fill: #fff;
      }
    </style>
  </defs>
  <path class="st0" d="M571.5,227.08l.89-12.12c.29-26.69,2.09-52.89,6.22-79.07,1.75-11.09,9.4-19.36,20.18-21.08l29.13-4.66c5.62-.9,10.64-.66,16.56-2.67l-33.92-4.15c-9.07-1.11-18.47-3.25-25.53-9.44-9.96-8.74-11.08-60.65-12.69-80.14l-8.23,66.26c-1.23,9.9-7.87,18.26-17.59,20.43-16.5,3.68-32.5,4.83-49.89,6.86,5.18,2.46,10.59,2.26,16.48,2.82,11.4,1.09,22.87,3.08,33.67,5.77,9.95,2.48,15.22,9.57,16.35,19.15l4.22,35.87,2.79,35.14,1.36,21.05ZM644.25,308.42c3.06-18.2,3.64-35.09,9.26-52.06,2.27-6.84,9.3-11.29,16.28-12.57l42.51-7.82-21.76-3.55c-8.62-1.41-17.25-3.43-25.19-6.55-7.25-2.84-10.58-8.7-11.27-16.01l-4.47-46.9-3.27-45.44-1.15-.59-1.74,40.45-3.07,37.73-3.63,19.57c-2.4,12.95-19.69,17.16-33.29,18.85l-24.53,3.05c14.78,2.01,28.67,3.71,42.77,7.7,7.21,2.04,13.31,7.51,15.08,14.95,3.86,16.28,4.61,32.15,7.51,49.18ZM501.49,353.29l.06,13.27-48.66-.42-108.05-.47c-4.72-.02-7.79-3.27-7.66-7.74l.97-32.93c.17-5.83.48-11.36,1.88-17.25l157.9.35c3.25-.59,6.66-4.24,8.76-6.24l11.85-11.3c7.5-7.15,13.85-14.57,20.72-22.19l32.34-35.93-90.17-.03h-62.83s-65.53-.15-65.53-.15l-91.93,79.62-.51,57.16c19.14.82,36.74.38,55.88-.24l-23.9,26.87-35.23,37.73-.12,3.69c-.02.6,2.11.83,2.83.84l95.61.45,41.41.55,124.83.11c16.29-4.44,29.5-14.55,38.44-28.69,5.8-12.94,10.15-26.19,10.23-40.65l.33-59.44-69.76.02.29,43.03ZM1449.73,379.47l-.34,62.05,69.28.17.15-89.56-2.73-13.12c-2.81-13.5-11-24.12-22.71-31.5-10.67-6.72-22.39-12.84-35.55-12.98l-85.18-.9-34.48.26-34.18,27.12-7.87,6.11.72-90.55-69.78,1.3-1.41,10.13-.54,45.13-.12,143.73c0,2.79,2.52,5.16,4.96,5.16h61.04c1.74-.28,3.97-1.01,5.01-2.04l-.03-79.64,127.32.28,16.58.23c6.97,3.62,11.18,10.17,9.85,18.64ZM898.33,402.59l.8-34-79.2-.24-131.92-.11c-2.8-.92-6.94-4.2-6.94-7.33l-.1-50.22,130.68,1.15.73,53.38,86.29-57.82,1.86-61.45c.05-1.67-.82-5.44-2.2-5.82l-5.28-1.44-51.14-.24-111.02.06-100.19,94.99-13.05,12.22-16.81,16.14-.41,20.08c-.45,22.07-.38,32.02,19.57,45.05,9.81,6.41,19.93,11.13,31.76,12.32l26.38,2.66,192.71,1.13,24.61.11c1.05,0,2.63-2.52,2.63-3.55l.25-37.08ZM1201.44,369.33l-35.6-.3-156.85-.05v-52.99s132.38.02,132.38.02l.53-71.78h-89.19s-43.64,43.36-43.64,43.36l-.12-47.67-46.07-.49-22.17.37c-1.59-.2-3.96,2.23-3.95,4.08l.2,28.25.06,134.66,5.73,11.98c7.32,10.95,20.53,23.19,35.24,23.27l219.88,1.17c2.32.01,4-2.18,3.98-4.25l-.41-69.63Z"/>
  <path class="st0" d="M501.49,353.29l-.29-43.03,69.76-.02-.33,59.44c-.08,14.46-4.43,27.72-10.23,40.65-8.95,14.14-22.15,24.25-38.44,28.69l-124.83-.11-41.41-.55-95.61-.45c-.72,0-2.85-.24-2.83-.84l.12-3.69,35.23-37.73,23.9-26.87c-19.15.62-36.74,1.06-55.88.24l.51-57.16,91.93-79.62,65.53.15h62.83s90.17.03,90.17.03l-32.34,35.93c-6.86,7.63-13.22,15.04-20.72,22.19l-11.85,11.3c-2.1,2-5.51,5.65-8.76,6.24l-157.9-.35c-1.41,5.89-1.71,11.42-1.88,17.25l-.97,32.93c-.13,4.47,2.94,7.72,7.66,7.74l108.05.47,48.66.42-.06-13.27Z"/>
  <path class="st0" d="M898.33,402.59l-.25,37.08c0,1.03-1.59,3.56-2.63,3.55l-24.61-.11-192.71-1.13-26.38-2.66c-11.83-1.19-21.95-5.92-31.76-12.32-19.95-13.02-20.02-22.98-19.57-45.05l.41-20.08,16.81-16.14,13.05-12.22,100.19-94.99,111.02-.06,51.14.24,5.28,1.44c1.38.38,2.25,4.15,2.2,5.82l-1.86,61.45-86.29,57.82-.73-53.38-130.68-1.15.1,50.22c0,3.13,4.14,6.41,6.94,7.33l131.92.11,79.2.24-.8,34Z"/>
  <path class="st0" d="M1201.44,369.33l.41,69.63c.01,2.07-1.66,4.26-3.98,4.25l-219.88-1.17c-14.7-.08-27.91-12.31-35.24-23.27l-5.73-11.98-.06-134.66-.2-28.25c-.01-1.84,2.36-4.28,3.95-4.08l22.17-.37,46.07.49.12,47.67,43.64-43.36h89.19s-.53,71.77-.53,71.77l-132.38-.02v52.99s156.84.05,156.84.05l35.6.3Z"/>
  <path class="st0" d="M1449.73,379.47c1.33-8.47-2.88-15.02-9.85-18.64l-16.58-.23-127.32-.28.03,79.64c-1.04,1.03-3.26,1.77-5.01,2.06h-61.04c-2.44-.01-4.97-2.38-4.96-5.18l.12-143.73.54-45.13,1.41-10.13,69.78-1.3-.72,90.55,7.87-6.11,34.18-27.12,34.48-.26,85.18.9c13.15.14,24.87,6.26,35.55,12.98,11.71,7.38,19.9,18,22.71,31.5l2.73,13.12-.15,89.56-69.28-.17.34-62.05Z"/>
  <path class="st0" d="M571.5,227.08l-1.36-21.05-2.79-35.14-4.22-35.87c-1.13-9.57-6.39-16.67-16.35-19.15-10.79-2.69-22.27-4.67-33.67-5.77-5.89-.56-11.29-.36-16.48-2.82,17.39-2.02,33.39-3.17,49.89-6.86,9.72-2.17,16.36-10.53,17.59-20.43l8.23-66.26c1.6,19.49,2.73,71.4,12.69,80.14,7.06,6.2,16.46,8.33,25.53,9.44l33.92,4.15c-5.91,2.01-10.93,1.77-16.56,2.67l-29.13,4.66c-10.77,1.72-18.43,9.99-20.18,21.08-4.13,26.18-5.93,52.38-6.22,79.07l-.89,12.12Z"/>
  <path class="st0" d="M644.25,308.42c-2.9-17.04-3.65-32.9-7.51-49.18-1.76-7.44-7.87-12.91-15.08-14.95-14.09-3.99-27.98-5.69-42.77-7.7l24.53-3.05c13.6-1.69,30.89-5.9,33.29-18.85l3.63-19.57,3.07-37.73,1.74-40.45,1.15.59,3.27,45.44,4.47,46.9c.7,7.31,4.03,13.16,11.27,16.01,7.94,3.12,16.58,5.14,25.19,6.55l21.76,3.55-42.51,7.82c-6.98,1.28-14.01,5.73-16.28,12.57-5.62,16.96-6.2,33.86-9.26,52.06Z"/>
</svg>