<?xml version="1.0" encoding="UTF-8"?>
<svg id="Calque_1" data-name="Calque 1" xmlns="http://www.w3.org/2000/svg" viewBox="0 0 636 807">
  <defs>
    <style>
      .cls-1 {
        fill: #fff;
      }
    </style>
  </defs>
  <path d="M211,0l-1.81,29.03-4.63,52.89-5.46,42.08c-1.39,10.67-4.33,20.44-6.31,30.96-2.99,15.9-9.45,31.13-22.84,40.98-15.7,11.55-33.77,17.43-52.83,19.98-4.1.55-8.13,1.57-11.75,2.55-9.13,2.46-17.73,3.1-27.03,4.13-11.49,1.27-22.87,2.22-34.29,2.86,0,0-22.63.52-30.7.96-3.22.17-5.98.44-6.55.49-2.59.25-4.68.52-6.01.7,1.42.25,3.08.52,4.94.79.5.07,3.09.44,6.08.74,5.58.56,10.48.7,11.25.72,8.07.23,37.19,1.89,58.94,4.17,13.78,1.45,26.66,2.46,39.81,6.2,21.53,6.12,37.49,8.69,54.11,27.06,6.52,7.21,8.82,16.87,11.99,25.85,2.75,7.81,3.69,15.13,4.92,23.17,2.34,15.36,5.42,30.18,5.71,45.82l2.3,28.93,3.97,60.94,4.58,61.34,2.98,56.73c.7-2.59,1.17-5.1,1.29-7.44l8-147.86c1.69-31.31,4.49-61.49,8.47-92.68,1.76-13.76,2.54-26.68,7.55-39.32,4.54-11.44,11.38-20.66,22.28-26.98,12.86-7.46,26.83-12.98,41.68-15.27l45.25-6.99c8.5-1.31,16.47-2.19,25.16-2.62,11.12-.56,21.77-2.43,32.98-2.09,3.02.09,5.98-.45,9.07-1.48-21.91-1.27-43.66-1.48-66.01-4.25-18.56-2.3-36.11-4.44-53.76-9.45-18.57-5.28-34.61-9.68-48.95-23.98-6.67-6.65-9.16-16.14-12.72-24.45-2.8-6.53-3.74-12.3-5.14-19.08-1.32-6.41-2.71-12.5-3.56-19.12l-4.75-36.99-3.45-35.02-2.57-31.01-1.16-24h424v807H0V0h211ZM426.86,776.97l4.71-52.94,5.91-44.93,7.22-33.44c3.11-14.39,10.98-28.18,23.23-36.44,15.72-10.6,32.55-16.15,50.94-18.5l12.1-2.66c7.94-1.74,15.03-2.95,22.98-3.74,21.2-2.09,41.96-3.99,63.29-3.96l18.1-.99c-1.01-.25-2.25-.53-3.67-.79-.48-.09-1.89-.35-3.79-.61-1.73-.23-2.97-.34-5.39-.55-.9-.08-2.77-.24-4.75-.37-5.2-.34-9.78-.38-10.42-.39-5.95-.07-27.73-1.44-52.18-4.01-13.84-1.46-27.1-2.33-40.47-6.18-9.37-2.7-18.46-4.6-27.8-8.38-11.06-4.47-21.43-11.53-28.61-21.12-5.46-7.3-7.29-15.79-10.29-23.94-2.78-7.59-3.4-14.66-4.71-22.36-2.93-17.25-4.54-34.09-6.08-51.66l-1.84-21.08-4.14-63.91-4.35-58.05-3.25-60.1c-1.34,6.22-1.63,11.69-1.95,17.83l-7.3,138.5c-1.64,31.01-4.39,60.83-8.36,91.7-1.75,13.58-2.52,26.29-7.18,38.81-4.61,12.4-11.92,22.1-23.62,28.61-13.67,7.61-28.35,12.99-44.17,15.41l-46.27,7.06c-6.88,1.05-13.42,1.31-20.41,1.87-14.07,1.12-27.65,2.45-41.41,2.52,2.51,1.01,5.2,1.22,7.47,1.37,19.29,1.28,38.47,1.49,57.93,3.98,19.12,2.45,37.57,4.67,55.96,10.12,12.69,3.76,25.94,6.46,36.24,14.93l10.26,8.45c7.21,7.46,9.56,17.61,13.5,26.71,2.4,5.54,2.89,10.43,4.11,16.13,1.44,6.76,2.85,13.15,3.74,20.09l4.54,35.15,3.86,39.49,2.29,27.38,1.64,24.14,2.4-29.16Z"/>
  <path class="cls-1" d="M211,0h1l1.16,24,2.57,31.01,3.45,35.02,4.75,36.99c.85,6.62,2.24,12.7,3.56,19.12,1.4,6.78,2.34,12.55,5.14,19.08,3.56,8.31,6.05,17.8,12.72,24.45,14.34,14.3,30.38,18.7,48.95,23.98,17.65,5.02,35.2,7.15,53.76,9.45,14,1.74,33.52,2.46,60.97,3.98,2.1.12,3.85.21,5.04.27-.97.27-2.42.63-4.2.95-3.29.59-5.76.66-7.45.73-3.86.16-1.05.19-11.1.82-8.31.52-9.97.49-19.31,1.06-3.69.23-5.53.33-7.37.49-5.96.49-11.74,1.2-17.79,2.14l-45.25,6.99c-14.86,2.29-28.82,7.82-41.68,15.27-10.9,6.32-17.74,15.54-22.28,26.98-5.01,12.64-5.79,25.55-7.55,39.32-3.98,31.19-6.78,61.37-8.47,92.68l-8,147.86c-.13,2.34-.59,4.85-1.29,7.44l-2.98-56.73-4.58-61.34-3.97-60.94-2.3-28.93c-.29-15.64-3.38-30.46-5.71-45.82-1.22-8.04-2.17-15.36-4.92-23.17-3.16-8.98-5.47-18.64-11.99-25.85-16.61-18.37-32.58-20.94-54.11-27.06-13.15-3.74-26.04-4.75-39.81-6.2,0,0-25.35-2.77-58.94-4.17-3.49-.15-4.57-.22-6.73-.37-1.37-.09-2.75-.2-2.75-.2-.06,0-.91-.07-1.77-.14-3.33-.28-5-.42-6.54-.65-1.06-.15-2.61-.42-4.48-.88,3.08-.47,5.21-.67,6.64-.77.3-.02.96-.06,2.02-.14,2.19-.15,3.78-.28,3.9-.28,7.6-.57,30.7-.96,30.7-.96,11.42-.64,22.8-1.59,34.29-2.86,9.31-1.03,17.9-1.67,27.03-4.13,3.62-.98,7.65-2.01,11.75-2.55,19.06-2.54,37.13-8.43,52.83-19.98,13.39-9.85,19.84-25.08,22.84-40.98,1.98-10.52,4.93-20.29,6.31-30.96l5.46-42.08,4.63-52.89,1.81-29.03Z"/>
  <path class="cls-1" d="M426.86,776.97l-2.4,29.16-1.64-24.14-2.29-27.38-3.86-39.49-4.54-35.15c-.9-6.93-2.3-13.32-3.74-20.09-1.21-5.7-1.71-10.6-4.11-16.13-3.95-9.1-6.3-19.26-13.5-26.71l-10.26-8.45c-10.3-8.48-23.55-11.17-36.24-14.93-18.39-5.45-36.84-7.67-55.96-10.12-19.46-2.49-38.64-2.7-57.93-3.98-2.27-.15-4.95-.35-7.47-1.37,13.76-.07,27.34-1.4,41.41-2.52,6.99-.56,13.53-.82,20.41-1.87l46.27-7.06c15.82-2.41,30.51-7.8,44.17-15.41,11.7-6.51,19.01-16.22,23.62-28.61,4.66-12.52,5.43-25.23,7.18-38.81,3.97-30.87,6.73-60.69,8.36-91.7l7.3-138.5c.32-6.14.61-11.61,1.95-17.83l3.25,60.1,4.35,58.05,4.14,63.91,1.84,21.08c1.53,17.57,3.14,34.41,6.08,51.66,1.31,7.7,1.93,14.78,4.71,22.36,2.99,8.15,4.83,16.64,10.29,23.94,7.17,9.59,17.54,16.65,28.61,21.12,9.34,3.78,18.43,5.67,27.8,8.38,13.37,3.86,26.63,4.72,40.47,6.18,0,0,20.61,2.3,52.18,4.01,4.91.27,7.59.39,7.59.39,1.31.06,2.62.12,3.93.18,2.2.1,2.75.13,3.66.18,1.08.07,2.22.14,3.66.27,1.15.11,2.4.23,3.84.46,1.36.22,3.2.58,5.36,1.22-2.88.16-5.76.31-8.65.47l-6.03.33c-1.14.06-2.28.12-3.42.19-2.1.11-49.64,2.61-63.29,3.96-7.95.78-15.04,1.99-22.98,3.74l-12.1,2.66c-18.39,2.35-35.22,7.9-50.94,18.5-12.25,8.26-20.12,22.05-23.23,36.44l-7.22,33.44-5.91,44.93-4.71,52.94Z"/>
</svg>