<?xml version="1.0" encoding="UTF-8"?>
<svg id="Calque_1" xmlns="http://www.w3.org/2000/svg" version="1.1" viewBox="0 0 1680 839.85">
  <!-- Generator: Adobe Illustrator 30.6.0, SVG Export Plug-In . SVG Version: 2.1.4 Build 109)  -->
  <defs>
    <style>
      .st0 {
        fill: #010101;
      }

      .st1 {
        fill: #030304;
      }

      .st2 {
        fill: #f9f8f8;
      }

      .st3 {
        fill: #040405;
      }

      .st4 {
        fill: #030303;
      }

      .st5 {
        fill: #010102;
      }

      .st6 {
        fill: #000001;
      }

      .st7 {
        fill: #111214;
      }

      .st8 {
        fill: #020304;
      }

      .st9 {
        fill: #020202;
      }

      .st10 {
        fill: #020303;
      }

      .st11 {
        fill: #101012;
      }

      .st12 {
        fill: #101112;
      }

      .st13 {
        fill: #f9f8f9;
      }

      .st14 {
        fill: #f8f8f8;
      }

      .st15 {
        fill: #010203;
      }

      .st16 {
        fill: #000102;
      }

      .st17 {
        fill: #010202;
      }

      .st18 {
        fill: #040506;
      }
    </style>
  </defs>
  <path class="st13" d="M570.01,235.1c-3.14,3.11-7.81,7.66-10.06,11.67-1.18,2.09-1.52,3.59-4.6,2.4.66,1.82.49,2.43.19,2.82-.45.57-1,1.56-2.82.5,1.19,3.75-2.27,3.05-2.61,4.15-2.78,2.92-5.78,5.28-5.43,6.64.35,1.37-2.76,1.66-7.08,6.46l-3.71,4.13-1.11.95-27.44,28.55-6.13,5.2c-14.12-1.01-28.03-.43-42.5-.49l-116.58-.42c-1.75,0-2.81,2.46-2.81,3.55l.12,54.06,116.01.56,47.68.52c1.86-5.6-.03-10.98-.03-16.32v-39.95l68.85-.15c.69.01,1.09.39,1.15.99l-.07,60.03-.94,5.11c-1.27,13.38-4.65,28.45-13.77,38.59-5.41,6.02-16.05,10.75-15.29,12.29-1.91-.76-2.74.95-3.8,1.53l-14.16,7.71c-1.28-.64-2.26.34-2.17,1.18l-50.69-.75-183.04-.79c-9.67-.04-18.14-1.45-27.04-.23.08-1.6-1.19-1.55-1.57-1.52-.33.03-.69-.58-.91-1.29l12.71-14.46c5.88-6.69,12.59-12.18,17.45-19.4,5.82-3.8,9.59-10.21,14.51-15.43l13.8-14.62c-8.17-1.16-15.93-.8-24.13-.68l-30.05.78c.03-.53-.31-1.68-1.66-1.75l.79-56.03,5.06-3.94,5.95-5.24,55.08-47.72,25.67-22.3,88.21.16,119.83-.12c3.26,0,5.97,1.11,9.43.26.79-.19.78,2.22-.3,2.82h0Z"/>
  <path class="st2" d="M899.82,288.99l-1.09,18.24-19.71,13.72-38.2,25.62-24.8,16.51c-1.16.78-2.34,1.56-3.49.95-.61-.32-.95-2.02-.95-3l.17-41.08c.01-2.32.47-6.54-1.56-8.26l-80.42-.54-48.67-.55.15,9.17-.07,39.6c0,3.87,2.37,6.3,6.36,8.6l142.32.14,36.15.03,31.85.04c.86,1.4,1.59,3.18,1.52,5.09l-.44,11.35-.62,17.46-.09,35.92c0,2.24-.06,3.44-1.15,4.6-1.57,1.65-2.98.57-5.18.57l-139.53-.36-44.71-.33-31.65-.33-19.26-2.1c-11.33-1.24-22.45-3.9-32.65-10.45l-10.7-6.86-6.71-7.05-3.79-5.84c-2.81-7.45-2.87-16.24-2.69-24.81l.51-23.63,11.49-11.27,3.81-3.1,14.13-13.73c2.41-1.27,3.94-3.28,6.06-5.31l37.58-35.96,9.37-8.76,6.03-5.9,13.05-12.28,28.64-26.92,28.24-.07,124.72.06,12.58.82c4.63.3,4.36,8.06,4.27,11.83l-.89,38.21.02-.04Z"/>
  <path class="st13" d="M1141.56,315.02c-.43.2-.89.96-1.9.96l-130.53.13.11,52.67,192.37.11.36,69.04c.01,2.36-.18,3.65-2.36,5.23l-218.02-.65c-14.35-.04-27.19-9.14-35.47-18.43-4.38-4.92-5.55-10.65-9.13-16.79l-.29-163.53c0-2.01,1.01-2.97,2.23-4.74,3.6.68,7.74.57,12.14.43l10.77-.35,37.15.5c3.46-.86,6.61-.9,10.11.55l.06,47.11,34.88-35.14,8.91-8.2,89.07.08-.46,71.05v-.03Z"/>
  <path class="st14" d="M1295.31,236.14c-1.02,1.02.24,2.73.63,3.66.28.69.95,2.28.95,3.15l-.23,26.77-.43,56.97c4.19-1.93,5.63-4.6,8.02-6.46l24.83-19.28,8.87-7.43,46.1-.23,70.74.76c16.52.18,31.78,7.63,43.91,16.94,8.95,6.87,14.69,16.75,17.49,27.76,1.08,4.23,2.68,8.57,2.68,13.3l.08,86.83-3.01,2.89-66.72-.17-.34-62.64c2.12-7.09-1.23-13.81-7.79-17.25-7.37-2.72-15.06-.86-23.16-.88l-80.82-.18-40.92-.31-.06,80.41c-2.62,1.15-4.73,1.18-7.17,1.19l-59.68.1c-.2-.95-.74-1.22-1.4-1.16-.44-1.65-1.68-2.86-2.95-5.07v-144.91l.59-16.69c1.65-7.85,1.43-14.72,1.04-22.88-.19-3.83,5.08-7.99,8.46-9.81,10.47-5.65,21.02-5.26,32.03-5.34l28.26-.02v-.02Z"/>
  <path class="st12" d="M534.24,275.2l-10.16,10.74-5.17,6.02-14.98,15.53c2-.72,3.52.36,5.1.37l62.96.27c-.98,1.11-1.82,1.14-2.04,1.8l-68.86.15v39.95c.01,5.33,1.91,10.72.05,16.32l-47.68-.52c-73.27-.15-105.98-.31-107.04-.46-.05,0-.67-.11-1.53-.19-1.03-.1-1.17-.07-1.81-.16-.57-.08-1.22-.17-1.97-.47-.44-.17-1.06-.48-1.73-1.02-.29-.34-.68-.83-1.02-1.5-.11-.22-.55-1.08-.79-2.36-.1-.52-.12-1.14-.16-2.37-.05-1.72-.08-2.58-.08-2.6-.06-4.02.89-18.06.94-28.78.02-4.03-.09-7.92.87-13.49.35-2.06.74-3.72,1.01-4.76l116.58.42c9.58-.3,16.61-.24,21.37-.12,2.55.07,9.19.27,18.18.06,1.04-.02,1.91-.05,2.48-.07.57-.29,1.16-.61,1.75-.97,1.93-1.16,3.53-2.42,4.84-3.62,9.63-9.39,19.27-18.78,28.9-28.17h-.01Z"/>
  <path class="st12" d="M533.4,276.59c.55-.94,1.09-1.88,1.64-2.82.85-1.34,1.7-2.69,2.55-4.03.26.04.76.03,1.42.67l-5.61,6.18Z"/>
  <path class="st11" d="M840.81,346.57c5.28,1.21-2.32,2.16-2.75,2.85-.24.39.93.99.46,1.31l-6.43,4.31c-.51-.05-2.71-.29-2.96.4-.16.42.79,1.08.33,1.38-3.74,2.39-5.58,4.57-9.09,4.72.86,1.93-1.73,2.34-2.48,3.12,8.61,1.45,16.59,1.12,25.12,1.12h23l31.68.36c.31,0,1.22,1.1,1.26,1.41.04.32-.7.82-1.1.63l-31.85-.04-36.15-.03-142.32-.14c-4-2.3-6.37-4.73-6.36-8.6l.07-39.6-.15-9.17,48.67.55,80.42.54c2.03,1.72,1.57,5.93,1.56,8.26l-.17,41.08c0,.98.34,2.68.95,3,1.15.61,2.33-.18,3.49-.95l24.8-16.51h0Z"/>
  <path class="st14" d="M585.78,94.34c6.48,4.72,14.17,7.18,22.51,8.35l13.14,1.84c7.96,1.12,15.88.76,23.7,2.97-2.47,1.98-5.29.8-7.28,1.39-4.71,1.4-9.48.82-14.41,1.65l-21.15,3.54c-21.67,3.63-23.6,16.5-25.83,37.5l-1.83,17.19-1.04,15.87-.87,12.06c-.98.67.14,2.87-2.29,3.56,0-2.14.08-4.27-1.18-5.38l-3.57-40.27-3.39-22.77c-.88-5.91-4.62-10.71-9.2-13.23-7.03-3.87-15.13-4.91-23.29-6.24l-11.29-1.84c-5.89-.96-11.75-.2-17.43-1.73-1.65-.45-3.89.24-5.31-1.38,8.6-2.22,16.71-1.7,24.8-2.93l21.63-3.3c5.65-.86,12.12-3.64,15.8-8.03,5.37-6.41,6.45-14.86,7.35-22.85l5.83-51.34c.05-.48-1.52-1.69-.83-1.9.9-1.07-.5-3.37,2.08-4.51l1.11,22.02,1.14,12.69,1.81,16.1c1.17,10.4,3.41,26.7,9.27,30.97h.02Z"/>
  <path class="st14" d="M645.99,138.95c1.27,1.82.88,3.55,1.03,6.05l2.09,34.05,3.57,33.03c2.01,18.6,24.02,19.24,41.09,22.35l13.19,1.08c.58.29,1.14.71,1.08,1-.07.28-.94,1.35-1.32,1.4l-22.95,2.96-7.55,1.46c-5.16,1-10.17,2.17-14.46,4.74-4.41,2.65-7.7,6.47-8.97,11.75l-3.27,13.58-3.09,21-.96,10.72c-.52-.02-1.77.08-2.44-.27l-2.26-21.83-3.46-20.25c-1.57-9.16-8.3-15.82-17.08-17.91l-15.17-3.62-24.86-3.46c-1.11-.15-2.83,1.05-4.2-.28-.05.06.69-.28.54-1.01,5.18-.26,10.62.22,16.37-.7l22.25-3.55,7.6-2.57c5.78-1.95,10.7-6.07,12.82-11.57,4.68-12.1,4.84-25.51,5.99-38.63l2.1-23.81.34-17.64c1.24,0,1.55,1.3,2,1.93h-.02Z"/>
  <path class="st5" d="M1141.56,315.02l.46-71.05-89.07-.08-8.91,8.2-34.88,35.14c-.16-31.34-.16-44.89-.06-45.43,0-.05.11-.47,0-.98-.05-.25-.14-.46-.24-.63-.1-.06-.26-.15-.46-.23-.8-.34-1.51-.34-1.82-.34-1.48,0-1.48-.26-3.66-.28-1.1,0-2.43.04-3.94.24-12.38-.17-24.77-.33-37.15-.5l-10.77.35c-2.08.06-4.2.09-6.37.1-1.95,0-3.87,0-5.76-.05-.46.24-.99.24-1.37-.02-.07-.05-.55-.37-.5-.89.03-.27.18-.55.5-.75,1.66-.82,3.53-1.79,5.34-1.73l18.95.59,42.07.19c5.38.02,7.13,2.36,7.21,7.18l.34,20.98-.17,16.26c2,.82,5.27-3.73,7.74-6.26l31.55-32.26c1.4-1.44,3.07-1.76,5.49-1.76l85.59-.03c.14,1.65.71,2.2,2.32,2.33l-.04,72.67c-.68-.39-1.69-1.27-2.41-.94l.02-.02Z"/>
  <path class="st9" d="M899.82,288.99l.89-38.21c.09-3.77.36-11.52-4.27-11.83l-12.58-.82-124.72-.06-28.24.07-28.64,26.92-13.05,12.28-.37-1.58,19.11-19.05,2.58-.98,1.51-2.59,18.66-17.58,28.49.18,134.7.43c2.67,0,5.28-.13,5.99,2.95.37,1.6,1.08,2.68,3.14,2.81l-.36,15.3.02,19.49-1.09,29.38-.67-16.88c-.17-.32-.84-.4-1.1-.23h0Z"/>
  <path class="st17" d="M571.59,13.02c-.06,1.06-.12,2.14-.19,3.23-.06.91-.13,1.81-.2,2.7l-5.83,51.34c-.91,7.99-1.98,16.45-7.35,22.85-3.68,4.39-10.16,7.17-15.8,8.03l-21.63,3.3c-8.09,1.23-16.2.71-24.8,2.93,1.42,1.63,3.66.94,5.31,1.38-1.26,3.09-4.86.17-6.52.75-2.17.77-2.96,0-2.98-1.43-.02-1.11.29-2.17.64-2.86.41-.8,3.27.76,4.04.38,5.21-2.54,12.89-2.84,18.04-3.02l8.63-.32c4.9-.18,9.4-2.68,14.33-2.88,3.89-.15,7.13-1.13,10.66-2.32,7.2-2.43,11.11-6.82,12.56-14.15,2.11-10.68,6.5-37.28,5.8-42.07-.57-3.9,1.19-8.18,1.45-12.07l.73-11.29c.28-.49.58-.99.9-1.5.73-1.14,1.49-2.14,2.22-3.02v.04Z"/>
  <path class="st16" d="M1295.31,236.14l-28.26.02c-4.35.19-7.82.28-10.26.33-3.71.07-7.62.11-7.62.11-3.1.03-3.01.02-3.84.05-3.67.13-4.27.42-7.62.47-2.28.04-3.84,0-3.84,0-.92-.02-1.83,0-2.75-.05,0,0-.96-.05-2.46.09-.16.02-.48.05-.86.22-.37.16-.62.38-.75.49-.09.08-.32.28-.5.54-.28.41-.34.83-.43,1.65-.11.91-.16,1.37-.17,1.48-.14,1.67-.21,2.51-.25,3.3-.04.85-.06,1.49-.07,1.97-.03,1.53-.05,2.29,0,3.24.05,1.21.17,2.3,0,3.84,0,0,0,0,0,0,0,.06-.2,2.52-.07,3.04h0s0-.01,0,0c0,.05.02,2.66.04,8.13.01,3.92-.03,7.09-.07,9.13-.2,5.56-.39,11.12-.59,16.69-.42.36-.94-.08-.94-.47l.05-2.4c-.33-11.04-.65-22.07-.98-33.11-.36-1.73-1.09-5.71-.84-9.84.13-2.29.5-3.56,1.05-5.42.19-.64.39-1.26.87-1.92.15-.21,1.13-1.53,2.8-2.01,1.91-.55,2.41.67,5.06.61,1.56-.04,1.62-.68,4.3-.92,1.4-.12,2.81-.25,4.22-.38,2.88-.27,5.75-.55,8.59-.84,3.13-.18,6.27-.36,9.4-.54l32.49-.64c1.25-.51,2.65-.24,3.51.66.95.99.82,2.3.8,2.49h-.01Z"/>
  <path class="st6" d="M1518.95,438.87l-.08-86.83c0-4.73-1.6-9.07-2.68-13.3-2.8-11.01-8.54-20.89-17.49-27.76.06-.9,1.21-1.42,1.78-.96.26.21,1.56.44,1.89,1.01l1.48,2.52c1.16.09,1.63.85,2.15,1.44,6.7,7.66,10,14.68,12.48,24.3l2.26,8.76.33,91.59c-1.27.52-1.12,1.33-1.1,1.86.03.48-1.39.98-1.94.12.97-.85.92-1.63.92-2.75h0Z"/>
  <path d="M1304.25,320.23c-2.39,1.86-3.83,4.53-8.02,6.46l.43-56.97.23-26.77v-1.66c.01-.5.04-.5.06-1.12,0-.11,0-.32.02-.64,0-.13,0-.24.01-.31.03-.41.05-.77.06-1.06,0-.12.04-.88,0-1.06,0-.02-.03-.11-.02-.24v-.04c.01-.15.48-.42.63-.42.3,0,.74.96,1.33,4.88l.1,80.75c.58-1.05,2.12-2.25,2.95-2.23.8.02.9-.59,1.24-.54.46.06.78.56.97.97h.01Z"/>
  <path class="st5" d="M569.27,194.88c.11,1.61.22,3.21.34,4.82.12,1.64.23,3.28.35,4.93-.03,1.52.01,3.18.17,4.96.1,1.14.24,2.23.4,3.24-.75.17-1.39.33-2.56,0-.1-3.22.53-6.51-.34-9.49-2.21-7.65-.79-15.45-1.75-23.3l-1.45-11.83c-.78-6.41-1.24-11.72-1.23-18.43,0-3.51-2.86-8.81-1.35-12.69-.8-.86-1.93-1.88-2.02-2.59-.09-.73.81-2.9.45-3.57l-4.86-9c-1.16.11-3.13-.6-3.34-1.3-.13-.45.55-1.08,1.02-2,4.58,2.52,8.32,7.32,9.2,13.23l3.39,22.77,3.57,40.27v-.02Z"/>
  <path class="st1" d="M637.86,108.89c1.99-.59,4.81.58,7.28-1.39-7.82-2.21-15.75-1.85-23.7-2.97l-13.14-1.84c-8.34-1.17-16.04-3.62-22.51-8.35-.52-1.78-2.81-2.6-1.38-5.57,2.87,6.89,13.44,10.32,21.7,10.68,4.4.19,8.71,2.25,12.96,2.72,6.78.76,17.46-.55,25.82,3.51,1.21-.17,3.53-1.14,4.19.63.46,1.25.83.83.04,2.36-.66,1.27-.95,1.44-3.13,1.39l-7.81-.19c-.41,0-.56-.66-.3-.99h-.02Z"/>
  <path class="st8" d="M612.22,350.11l-11.49,11.27-.51,23.63c-.18,8.57-.12,17.36,2.69,24.81l3.79,5.84c-.85.38-.95,1.52-.47,1.82l2.19,1.38c1.82.83,0,3.08-.79.97-2.38-.79-2.52-3.24-3.09-4.54-.49-1.14-3.62-1.47-1.97-4.4-1.8.6-2.66-.06-2.66-.46v-2.26c-1.58-.94-.43-4.84-.76-6.21-1.91-3.82-1.43-7.84-1.29-11.94.36-9.98-.3-19.08,1.4-29.5l7.8-7.83c1.26-1.26,1.6-3.48,5.17-2.6v.02Z"/>
  <path class="st1" d="M570.09,376.06l.94-5.11.07-60.03c.78-.31,1.62-.84,2.73-.9l-.15,12.14c-.11,8.98-.27,17.64-.37,26.88l-.35,30.88c-2.74-.66-.54-3.94-2.87-3.86h0Z"/>
  <path class="st3" d="M645.44,304.11l.96-10.72,3.09-21,3.27-13.58c1.27-5.28,4.56-9.1,8.97-11.75.05,1.18,1.05,1.01,1.32.43.28-.62,1.42-1.56,2.73-.18l-4.6,2.77c-4.23,2.55-6.47,6.91-6.76,12.12-.17,3.01-2.11,5.83-2.39,8.41-.63,5.66-.72,11.23-2.46,15.87-2.18,5.81.19,19.08-3.14,24.42-.31-.07-.83-1.83-.85-2.2.05.88-3.1,1.78-.35,2.69-.35,1.62-2.45,1.05-2.71.15-.2-.66-.85-1.43-.08-2.4.37-.47,1.36-.37,2.62-.91,2.23-.96.35-2.98.38-4.11h0Z"/>
  <path d="M1222.05,435.1l-.06-142.58c0-.28.58-.69.96-.61l.06,142.58c0,.28-.58.69-.96.61h0Z"/>
  <path class="st0" d="M1515.94,441.76c.91.12,1.59,1.04.91,2.28l-65.83-.22c-3.29-.01-4.26-4.63-4.25-6.8l.11-61.01c.01-4.11-.78-7.88-3.15-10.19-2.93-2.85-5.6-2.85-9.91-2.85l-134.84.08-.05,76.66c-.57,1.55-3.13,1.04-3.29,4.09l-65.7.18c-.36-.03-1.61-.18-2.63-1.21-.68-.68-.94-1.44-1.04-1.83.59.3,1.3.6,2.12.84.31.09.61.16.9.22l59.68-.1c2.44,0,4.55-.04,7.17-1.19l.06-80.41,40.92.31,80.82.18c8.1.02,15.79-1.84,23.16.88,1.31.76,6.33,3.88,8.12,10.15.88,3.08.65,5.76.36,7.41-.12,20.78-.24,41.56-.35,62.35l66.72.17h-.01Z"/>
  <path class="st6" d="M266.12,307.25l-5.06,3.94-.79,56.03-.3-55.39c-.42.04-.86.4-.97.68l-.11,55.55c-.31.12-.95-.25-.95-.56l.31-55.43c1.35-3.79,6.17-7.41,9.53-8.37.29,1.75-1.59,2.42-1.66,3.54h0Z"/>
  <path class="st18" d="M613.41,422.72l10.7,6.86c10.2,6.54,21.32,9.21,32.65,10.45,6.64.66,13.28,1.32,19.93,1.98,10.33.15,20.65.3,30.98.45l44.71.33,139.53.36c1.13.22,2.07.27,2.75.27.84,0,1.25-.07,1.65-.28.58-.3.88-.76,1.07-1.05.97-1.49.91-3.45.86-4.11l.09-35.92.62-17.46c.7-.39,1.5.56,1.26.95-.31.51-1.22,1.87.49,2.7l.54-18.33c.25.01.66.23.83.62l-.66,26.25-1.36,4.23.12,36.95c0,2.39,0,4.94-1.33,6.39-1.81,1.97-4.26.71-7.07.71l-218.72-.26c-5.88-1.42-11.62-.71-16.53-3.81-4.06,2.38-6.96.12-10.68-.06-2.46-1.92-5.58-2.26-8.24-1.65-4.35-2.93-10.24-5.94-14.14-6.61.26-1.7-.41-2.5-.99-2.98-.93-.77-1.89-.28-1.99.71-.29-1.61-1.42-1.63-1.86-1.52-.36.09-.06-1.7-.43-1.71-1.41-.02-3.21-.27-3.91-.86-.47-.39-.26-2.41-.85-2.32-1.42.23-2.42-.03-3.09-.67-.42-.4-.45-1.53.79-1.44.6.04,1.65,1.29,2.3.81l-.02.02Z"/>
  <path class="st8" d="M287.81,398.91c-1.67,1.09-3.71,2.58-4.85,5.54-.73,1.35-2.52.4-1.18-1.37l12.17-13.05,10.89-11.85c2.11-2.29,4.13-4.27,5.12-7.2,1.05.62,1.75.54,2.11.19.3-.3-2-1.54-1.83-1.92.15-.34,2.01.07,2,.25-.02.24-3.73-.11-11.11-.21-4.32-.06-4.41.04-12.93.11-3.81.03-11.75.08-21.04-.11-1.49-.03-6.72-.13-6.72-.23,0-.04.8-.06,1.5-.08,1.49,1.14,2.98,2.27,4.47,3.41,3.67,2.01,17.82,9.17,34.4,4.49,6.91-1.95,12.03-5.33,15.32-8l-13.8,14.62c-4.92,5.21-8.69,11.62-14.51,15.43v-.02Z"/>
  <path class="st6" d="M683.16,283.25l-9.37,8.76-37.58,35.96c-2.12,2.03-3.65,4.04-6.06,5.31-1.49-.23-.92-.96-.69-1.36.52-.9,1.9-.76,2.17-.99.36-1.1.65-2.59,1.31-2.57l2.17.06c-.29-1.53.14-2.71.9-2.84.37-.07,1.48.08,2.16-.34.27-2.51,1.34-3,2.56-4.2l9.24-9.14,19.1-17.88,4.67-4.97c1.83-1.95,3.99-4.09,6.18-5.05,1.15-.26,1.35-1.24,1.55-1.66.18-.37,1.2.52,1.67.91h.02Z"/>
  <path class="st10" d="M635.55,217.11c-2.12,5.5-7.04,9.61-12.82,11.57l-7.6,2.57-22.25,3.55c-5.75.92-11.19.44-16.37.7.15.73-.59,1.06-.54,1.01.68.15,1.42.33,2.2.58.69.22,1.33.45,1.92.68-1.81.39-3.16.11-3.89-.11-.76-.23-1.46-.47-1.74-1.12-.18-.42-.12-1.02.44-1.94l13.31-2.02c3.27-.5,7.46.09,9.98-.75,5.66-1.89,12.84-3.17,16.8-1.79.81-1.7,1.26-1.79,1.64-2.04-.82.54,8.77-.09,16.27-8.68.2-.46-.23-3.04.51-3.16.52-.08,1.3.9,2.14.97v-.02Z"/>
  <path class="st1" d="M570.01,235.1c.36-.49,1.15-1.7.73-2.49-.36-.68-1.44-.74-3.59-.74-1.59,0-3.72.02-6.27.15-8.61.44-97.69.58-119.83.12-5.58-.12-10.04-.28-18.74-.38-2.62-.03-5.5-.06-9.55-.19-4.92-.16-8.95-.39-11.61-.56-2.61-.17-4.62-.06-5.84-.06-3.72.02-5.58.03-7.19.18-1.63.15-2.56.34-4.01.25-.68-.04-1.36.02-2.03,0-.72-.02-1.19-.05-1.67.23-.16.09-.22.17-.75.76-.92,1.02-.79.87-.98,1.09-.69.82-.92,1.22-1.47,1.94-.36.48-.92,1.16-1.68,1.94-.41.51-.94,1.16-1.57,1.89,0,0-.73.84-1.52,1.68-1.19,1.27-10.32,10.17-22.9,22.29-12.06,9.94-13.68,11.58-17.63,14.95-4.1,3.5-7.2,5.94-7.85,6.46-10.15,8.1-28.98,25.85-28.98,25.85-8.41,7.93-21.05,19.42-39.22,34.68-.5-2.12-9.02-40.88,16.07-63.45,8.21-7.39,17.36-10.65,23.98-12.19.52.34,4.65,2.99,7.66,2.4.6-.12,1.15-.91,2.07-1.04.42-.06.75-1.63.76-2.05.04-.93,1.62-.85,2.19-1.33l13.43-11.23,9.97-9.06,11.05-9.26,6.82-5.84c-2.72-1.83-6.03-4.24-5.66-4.96.39-.78,4.93.73,7.97,1.84l61.71.22,27.31.57,129.78.31-.97,5.04Z"/>
  <path class="st15" d="M1139.66,315.98c-.09.61.86,1.43,1.28.46.21-.51,1.85-.32,1.11,1.49l-130.72.08.28,48.15,188.06.11,4.33,3.25v71.44c-.7,1.23-2.33,4.01-4.11,4.01l-214.72-.03c-5.67,0-9.46-.17-14.52-2.39-2.64-1.16-6.11-1.34-8.84-3.24l-11.03-7.66c-3.08-2.14-6.77-7.51-4.66-7.59,8.27,9.3,21.11,18.39,35.47,18.43l218.02.65c2.18-1.58,2.37-2.87,2.36-5.23l-.36-69.04-192.37-.11-.11-52.67,130.53-.13v.02Z"/>
  <path class="st7" d="M534.24,275.2c-.49-.13-.97-.25-1.46-.38"/>
  <path class="st7" d="M0,483.5V0h1680v484H0v-.5ZM570.89,14.31c-.29.55-.59,1.17-.86,1.87-.4,1.04-.66,2.01-.82,2.84-.49,3.27-.99,6.54-1.48,9.81-.25,3.89-2.02,8.17-1.45,12.07.7,4.79-3.69,31.39-5.8,42.07-1.45,7.33-5.36,11.72-12.56,14.15-3.53,1.19-6.77,2.17-10.66,2.32-4.93.2-9.43,2.7-14.33,2.88l-8.63.32c-5.15.19-12.83.48-18.04,3.02-.77.37-3.63-1.18-4.04-.38-.35.69-.65,1.75-.64,2.86.02,1.43.81,2.2,2.98,1.43,1.66-.59,5.26,2.34,6.52-.75,5.68,1.53,11.55.77,17.43,1.73l11.29,1.84c8.16,1.33,16.26,2.38,23.29,6.24-.47.93-1.15,1.55-1.02,2,.21.7,2.17,1.41,3.34,1.3l4.86,9c.36.66-.54,2.83-.45,3.57.09.71,1.22,1.73,2.02,2.59-1.51,3.88,1.35,9.18,1.35,12.69-.01,6.71.45,12.02,1.23,18.43l1.45,11.83c.1.72.27,1.91.45,3.39,1.11,9.16.77,12.94,1.72,19.84.25,1.84.7,4.65,1.51,8.09.33.5.65.99.98,1.49.43,10.15.83,15.22,1.19,15.22s.7-5.37.99-16.12l.04-15.23.87-12.06,1.04-15.87,1.83-17.19c2.23-21,4.16-33.88,25.83-37.5l21.15-3.54c4.93-.83,9.7-.24,14.41-1.64-.26.33-.11.98.3.99l7.81.19c2.18.05,2.47-.11,3.13-1.39.8-1.53.42-1.11-.04-2.36-.65-1.77-2.98-.8-4.19-.63-8.35-4.06-19.04-2.74-25.82-3.51-4.25-.48-8.56-2.53-12.96-2.72-8.26-.36-18.83-3.79-21.7-10.68-1.43,2.96.86,3.79,1.38,5.57-5.86-4.28-8.1-20.57-9.27-30.97l-1.81-16.1-1.14-12.69-1.11-22.02c-.25-.18-.41-.19-.51-.15-.27.09-.28.51-.54,1.09-.17.36-.36.64-.51.82v-.05ZM644.21,135.71c-.18,6.32-.37,12.63-.55,18.95l-2.1,23.81c-1.16,13.12-1.32,26.53-5.99,38.63-.84-.07-1.62-1.05-2.14-.97-.74.11-.31,2.7-.51,3.16-7.51,8.59-17.1,9.22-16.27,8.68-.38.25-.83.34-1.64,2.04-4.37-.17-10.2.09-16.8,1.79-3.84.99-7.15,2.27-9.9,3.54-6.43.12-9.66.4-9.68.83,0,.18.51.38,1.57.61l24.86,3.46,15.17,3.62c8.78,2.09,15.51,8.75,17.08,17.91l3.46,20.25,2.26,21.83c.23,1.54.78,4.86,1.37,4.84.56-.02.91-2.97,1.07-4.57-.03,1.13,1.84,3.15-.38,4.11-1.25.54-2.25.44-2.62.91-.76.97-.11,1.74.08,2.4.27.9,2.36,1.48,2.71-.15-2.75-.9.4-1.81.35-2.69.02.37.55,2.13.85,2.2,3.33-5.35.96-18.61,3.14-24.42,1.74-4.64,1.83-10.21,2.46-15.87.29-2.58,2.22-5.39,2.39-8.41.29-5.21,2.53-9.57,6.76-12.12l4.6-2.77c-1.32-1.38-2.46-.44-2.73.18-.27.58-1.27.75-1.32-.43,4.29-2.57,9.3-3.74,14.46-4.74l7.55-1.46c7.6-1.14,15.2-2.29,22.8-3.43,1.8-.42,2.73-.6,3.26-.69.11-.02.48-.07.98-.18.53-.11.44-.12,1.09-.27.34-.08.8-.18,1.29-.46.1-.06.22-.14.22-.22s-.16-.15-.6-.24c-.51-.11-.89-.15-.89-.15-.39-.04-.77-.12-1.16-.18-.87-.13-1.5-.26-1.79-.32-2.23-.42-7.03-1-7.03-1-3.17-.45-6.33-.88-9.47-1.3-2.08-.28-5.07-.72-8.65-1.43-2.14-.42-7.77-1.59-14.64-3.93-2.42-.83-5.52-1.98-8.66-4.41-.81-.62-1.44-1.12-2.17-1.96-2.2-2.54-3.02-5.68-3.54-7.65-.05-.19-.09-.36-.09-.37-.12-.55-.19-1.21-.46-3.48,0,0-.41-3.39-.79-6.26-.47-3.54-.62-3.9-1.22-8.25h0s-.34-2.4-.63-4.81c-.74-6.35-2.48-37.72-2.48-37.72-.08-1.47-.24-4.26-.54-7.92-.17-2.06-.29-3.15-.42-4.69-.38-4.78-.44-6.95-.9-12.28-.6-6.89-1.01-11.52-1.47-11.52-.59,0-1.12,6.67-1.58,19.99l-.02-.02ZM263.27,317.36c.13,1.95.02,2.81-.21,4.54-.02.17-.55,4.06-1.15,4.05-.15,0-.35-.25-.57-1.31-.06,1.12-.14,2.84-.2,4.95-.23,7.47-.06,12.98-.01,14.75.11,4.67.04,11.92-.85,22.89-1.34.36-1.99.6-1.97.72.03.16,1.11.14,3.25-.06-.43-.22-.85-.43-1.28-.65,0,.15-.01.63.32,1.08.48.64,1.24.67,1.34.67.51.05,1.06.12,1.65.25,1.61.35,2.91.94,3.88,1.49,19.43,1.33,27.42.85,30.83-.01,1.17-.29,5.68-1.61,8.92-1.53.97.02,2.54.19,4.49-.21.2-.04.82-.17,1.66-.26,1.04-.11,2.58-.26,2.76.17.12.29-.67.78-1.9,1.86,0,0-.01.01-2.17,2.12-2.66,2.6-13.64,15.85-20.71,23.63-.99,1.09.03-.05-11.87,12.34-3.83,3.99-6.98,7.28-9.11,9.5l-12.71,14.46c-.22.32-.5.81-.71,1.45-.21.65-.49,1.53-.18,2.25.38.9,1.6,1.42,3,1.36l102.1.53,45.2.62,114.86.06c2.79-.91,5.58-1.82,8.37-2.73,3.31-1.58,10.68-5.33,17.02-10.7,2.9-2.46,5.23-4.95,5.42-5.16.78-.84,3.12-3.42,5.36-6.68,4.84-7.07,6.81-13.92,9.51-23.37.38-1.31.81-2.83,1.19-4.75.77-3.91,1.12-7.23,1.29-9.59,1.07-9.01,2.15-18.01,3.22-27.02.1-9.23.26-17.89.37-26.88l.15-12.14c-1.11.07-1.94.59-2.73.9-.13-.18-.31-.39-.57-.6-.21-.17-.42-.3-.59-.39.22-.66,1.07-.7,2.04-1.8l-62.96-.27c-1.58,0-3.1-1.08-5.1-.37l14.98-15.53,5.17-6.02c3.23-3.54,6.46-7.07,9.69-10.61.52-.86,1.34-1.99,2.59-3.09.96-.85,1.9-1.43,2.66-1.83-.15-.16-.45-.43-.9-.57-.22-.07-.4-.08-.52-.1,2.07-2.08,4.16-4.22,6.26-6.42,2.15-2.25,4.23-4.48,6.25-6.69,1.23-1.2,2.46-2.4,3.69-3.6.85-1.08,1.7-2.15,2.55-3.23,2.5-2.58,5.03-5.25,7.57-7.99,2.08-2.25,4.11-4.49,6.09-6.71.6-.12,2.54.14,2.67-.66.08-.47.42-1.62.08-1.95-.34-.32-1.98-.46-1.81-2.43l-129.78-.31-27.31-.57-61.71-.22c-.31,1.76-1.07,2.06-2.31,3.12-.04.03-4.23,3.62-4.27,3.66-.01.01-2.54,2.17-2.55,2.18-3.68,3.09-7.37,6.17-11.05,9.26l-9.97,9.06-13.43,11.23c-.57.47-2.15.39-2.19,1.33-.02.43-.35,1.99-.76,2.05-1.07.16-1.81.99-2.07,1.04-2.24.39-28.89,9.42-36.32,26.67-2.37,5.52-4.2,15.18-3.95,18.78ZM1224.93,290.88v144.91c-.01.99.12,2.58,1.04,4.15.21.36.44.68.67.96.28.25.56.5.84.75.86.78,1.68,1.56,2.46,2.34l65.7-.18c.16-3.05,2.72-2.54,3.29-4.09l.05-76.66,134.84-.08c4.31,0,6.98,0,9.91,2.85,2.37,2.31,3.16,6.08,3.15,10.19l-.11,61.01c-.01,2.17.96,6.79,4.25,6.8l65.83.22c.68-1.24,0-2.17-.91-2.28.68.08,1.59.06,2.2-.5.91-.83.71-2.39.81-2.39.07,0,.19.94-.23,1.86-.14.3-.35.59-.69.89.55.86,1.97.36,1.94-.12-.02-.52-.17-1.34,1.1-1.86l-.33-91.59-2.26-8.76c-2.48-9.63-5.78-16.64-12.48-24.3-.52-.59-.99-1.35-2.15-1.44l-1.48-2.52c-.33-.57-1.63-.79-1.89-1.01-.57-.46-1.72.06-1.78.96-12.13-9.31-27.39-16.76-43.91-16.94l-70.74-.76-46.1.23-8.87,7.43-24.83,19.28c-1.07-1.91-1.44-.41-2.21-.43-.83-.02-2.37,1.18-2.95,2.23l-.1-80.75c-1.34-2.87-1.9-4.06-1.93-4.14,0,0-.02-.04-.04-.09,0,0-.04-.08-.07-.15-.13-.25-.31-.4-.31-.4-.17-.15-.35-.2-.48-.24-.18-.05-.38-.07-.44-.08-.31-.03-.33,0-.4-.03-.25-.12-.14-.65-.2-1.15,0,0-.08-.64-.6-1.35-.59-.79-2.02-.99-3.51-.66l-32.49.64-7.86,1.19c-3.32.17-6.92.54-10.75,1.19-1.56.26-2.65.66-4.68.92-4.46.58-5.84-.1-7.23.4-2.12.75-4.2,4.15-4.14,15.66l.19,35.01c.3.96.59,1.91.89,2.87h-.01ZM689.2,277.35l-6.03,5.9c-.47-.39-1.49-1.28-1.67-.91-.2.42-.4,1.4-1.55,1.66-2.19.96-4.35,3.11-6.18,5.05l-4.67,4.97-19.1,17.88-9.24,9.14c-1.22,1.2-2.29,1.69-2.56,4.2-.68.42-1.79.27-2.16.34-.76.14-1.19,1.31-.9,2.84l-2.17-.06c-.66-.02-.95,1.48-1.31,2.57-.27.23-1.65.08-2.17.99-.08.14-.44.63-.28.87.24.36,1.47-.04,2.61-.5-.48.36-1.09.83-1.79,1.4-.51.42-1.03.86-1.69,1.45-1.47,1.31-2.57,2.38-2.8,2.61-4.02,3.93-6.14,6.34-9.49,9.27-.85.75-2.15,1.84-3.81,3.1-3.57-.88-3.91,1.34-5.17,2.6l-7.8,7.83c-1.69,10.41-1.04,19.51-1.4,29.5-.15,4.1-.62,8.12,1.29,11.94.33,1.37-.82,5.27.75,6.21v2.26c0,.4.87,1.05,2.67.46-1.65,2.93,1.47,3.26,1.97,4.4.56,1.3.7,3.75,3.09,4.54.79,2.11,2.61-.14.79-.97l-2.19-1.38c-.48-.31-.38-1.44.47-1.82l6.71,7.05c-.64.48-1.69-.76-2.3-.81-1.24-.09-1.21,1.04-.79,1.44.66.64,1.67.9,3.09.67.59-.1.38,1.92.85,2.32.7.59,2.51.84,3.91.86.38.01.08,1.8.43,1.71.44-.11,1.57-.09,1.86,1.52.1-.99,1.06-1.48,1.99-.71.58.48,1.26,1.28.99,2.98,3.9.66,9.79,3.67,14.14,6.61,2.66-.6,5.78-.27,8.24,1.65,3.72.18,6.62,2.44,10.68.06,4.92,3.1,10.65,2.39,16.53,3.81l218.72.26c2.81,0,5.27,1.26,7.07-.71,1.33-1.45,1.34-4.01,1.33-6.39l-.12-36.95,1.36-4.23.66-26.25c-.17-.4-.58-.61-.83-.62l-.54,18.33c-1.71-.83-.79-2.19-.49-2.7.24-.4-.56-1.34-1.26-.95l.44-11.35c.03-.53.07-1.73-.21-2.89-.1-.4-.27-.93-.59-1.34-.21-.27-.49-.52-.49-.52-.15-.14-.29-.24-.38-.3-.12-.08-.23-.15-.32-.2.44.1.89.06,1.08-.19.26-.34.06-1.15-.75-1.7l-31.68-.35h-23c-8.53-.01-16.51.32-25.12-1.13.75-.78,3.34-1.19,2.48-3.12,3.51-.15,5.35-2.33,9.09-4.72.46-.29-.49-.95-.33-1.38.26-.69,2.46-.45,2.96-.4l6.43-4.31c.47-.32-.7-.91-.46-1.31.43-.69,8.02-1.64,2.75-2.85l38.2-25.62,19.71-13.72,1.09-18.24c.26-.18.93-.09,1.1.23l.67,16.88,1.09-29.38-.02-19.49.36-15.3c-2.07-.13-2.77-1.21-3.14-2.81-.71-3.09-3.32-2.95-5.99-2.95l-134.7-.43-28.49-.18-18.66,17.58-1.51,2.59-2.58.98-19.11,19.05.37,1.58h-.03ZM938.31,240.18c-.28.24-.64.6-.94,1.11-.6,1-.66,1.98-.66,2.46l.29,163.53c3.59,6.14,4.75,11.87,9.13,16.79-2.11.08,1.59,5.45,4.66,7.59l11.03,7.66c2.72,1.89,6.2,2.08,8.84,3.24,5.05,2.22,8.85,2.38,14.52,2.39l214.72.03c1.78,0,3.41-2.77,4.11-4.01v-71.44l-4.33-3.25-188.06-.11-.28-48.15,130.72-.08c.74-1.81-.9-2-1.11-1.49-.42.97-1.37.15-1.28-.46,1.01,0,1.47-.76,1.9-.96.72-.33,1.73.55,2.41.94l.04-72.67c-1.61-.13-2.18-.68-2.32-2.33l-85.59.03c-2.42,0-4.09.32-5.49,1.76l-31.55,32.26c-2.47,2.52-5.74,7.08-7.74,6.26l.17-16.26-.34-20.98c-.08-4.82-1.83-7.16-7.21-7.18l-42.07-.19-18.95-.59c-1.81-.06-3.68.91-5.34,1.73-.23.47-.13.65-.09.71.08.11.24.17,1.1.11.84-.06,1.06-.15,1.11-.05.1.17-.35.71-1.4,1.6h0ZM1222.05,435.1c.38.09.96-.33.96-.61l-.06-142.58c-.38-.09-.96.33-.96.61l.06,142.58h0Z"/>
  <path class="st7" d="M338.41,367.15"/>
  <path class="st12" d="M288.73,371.42"/>
  <path class="st7" d="M298.45,376.76"/>
  <path class="st7" d="M261.91,370.81"/>
  <path class="st7" d="M263.85,372.21"/>
  <path class="st7" d="M263.65,369.77"/>
  <path class="st7" d="M262.57,369.99"/>
  <path class="st10" d="M579.67,235.81"/>
  <path class="st7" d="M598.93,203.03"/>
  <path class="st7" d="M708.89,242.29"/>
  <path class="st7" d="M588.76,243.97"/>
  <path class="st7" d="M645.79,128.37"/>
  <path class="st4" d="M654.03,139.55"/>
  <path class="st7" d="M647.08,137.09"/>
  <path class="st4" d="M645.36,142.07"/>
  <path class="st7" d="M698.95,159.55"/>
  <path class="st17" d="M571.4,16.25"/>
  <path class="st7" d="M574.67,14.74"/>
  <path class="st7" d="M577.17,204.76"/>
  <path class="st7" d="M571.92,236.26"/>
  <path class="st7" d="M714.07,237.84"/>
  <path class="st7" d="M700.94,251.21"/>
  <path class="st7" d="M728.52,185.44"/>
  <path class="st18" d="M657.4,453.79"/>
  <path class="st7" d="M630.4,334.79"/>
  <path class="st7" d="M905.63,366.24"/>
  <path class="st7" d="M902.77,368.16"/>
  <path class="st18" d="M903.8,443.9"/>
  <path class="st7" d="M1228.61,441.88"/>
  <path class="st7" d="M1224.9,442.4"/>
  <path d="M1294.77,238.1"/>
  <path class="st7" d="M1301.21,236.98"/>
  <path d="M1296.89,237.33"/>
  <path class="st7" d="M1297.51,236.21"/>
  <path class="st7" d="M1297.28,238.11"/>
  <path d="M1298.27,236.6"/>
  <path class="st16" d="M1236.99,238.7"/>
  <path class="st7" d="M1569.43,839.85"/>
  <path class="st7" d="M939.85,239.95"/>
  <path class="st7" d="M940.46,238.75"/>
  <path class="st5" d="M1013.58,239.47"/>
  <path class="st0" d="M1455.89,456.96"/>
  <path class="st7" d="M1518.71,443.83"/>
  <path class="st7" d="M1519.33,443.87"/>
  <path class="st7" d="M1302.61,235.13"/>
  <path class="st12" d="M227.57,397.01"/>
  <path class="st7" d="M540.12,274.6"/>
  <path class="st7" d="M1227.95,239.06"/>
  <path class="st16" d="M1264.33,214.43"/>
  <path class="st1" d="M358.22,237.39"/>
  <path class="st7" d="M351.06,237.7"/>
  <path class="st7" d="M361.64,237.08"/>
  <path class="st7" d="M529.54,492.87"/>
  <path class="st7" d="M347.31,169.08"/>
  <path class="st1" d="M332.87,214.85"/>
  <path class="st1" d="M376.77,218.13"/>
  <path class="st1" d="M395.14,196.87"/>
  <path class="st1" d="M295.5,170.52"/>
</svg>